<?xml version="1.0" encoding="utf-8"?>
<svg xmlns="http://www.w3.org/2000/svg" xmlns:xlink="http://www.w3.org/1999/xlink" style="margin: auto; background: none; display: block; shape-rendering: auto;" width="90px" height="90px" viewBox="0 0 100 100" preserveAspectRatio="xMidYMid">
<g transform="rotate(0 50 50)">
  <rect x="48" y="21.5" rx="2" ry="3.15" width="4" height="21" fill="#1c4595">
    <animate attributeName="opacity" values="1;0" keyTimes="0;1" dur="0.6134969325153374s" begin="-0.5521472392638036s" repeatCount="indefinite"></animate>
  </rect>
</g><g transform="rotate(36 50 50)">
  <rect x="48" y="21.5" rx="2" ry="3.15" width="4" height="21" fill="#1c4595">
    <animate attributeName="opacity" values="1;0" keyTimes="0;1" dur="0.6134969325153374s" begin="-0.49079754601226994s" repeatCount="indefinite"></animate>
  </rect>
</g><g transform="rotate(72 50 50)">
  <rect x="48" y="21.5" rx="2" ry="3.15" width="4" height="21" fill="#1c4595">
    <animate attributeName="opacity" values="1;0" keyTimes="0;1" dur="0.6134969325153374s" begin="-0.42944785276073616s" repeatCount="indefinite"></animate>
  </rect>
</g><g transform="rotate(108 50 50)">
  <rect x="48" y="21.5" rx="2" ry="3.15" width="4" height="21" fill="#1c4595">
    <animate attributeName="opacity" values="1;0" keyTimes="0;1" dur="0.6134969325153374s" begin="-0.36809815950920244s" repeatCount="indefinite"></animate>
  </rect>
</g><g transform="rotate(144 50 50)">
  <rect x="48" y="21.5" rx="2" ry="3.15" width="4" height="21" fill="#1c4595">
    <animate attributeName="opacity" values="1;0" keyTimes="0;1" dur="0.6134969325153374s" begin="-0.3067484662576687s" repeatCount="indefinite"></animate>
  </rect>
</g><g transform="rotate(180 50 50)">
  <rect x="48" y="21.5" rx="2" ry="3.15" width="4" height="21" fill="#1c4595">
    <animate attributeName="opacity" values="1;0" keyTimes="0;1" dur="0.6134969325153374s" begin="-0.24539877300613497s" repeatCount="indefinite"></animate>
  </rect>
</g><g transform="rotate(216 50 50)">
  <rect x="48" y="21.5" rx="2" ry="3.15" width="4" height="21" fill="#1c4595">
    <animate attributeName="opacity" values="1;0" keyTimes="0;1" dur="0.6134969325153374s" begin="-0.18404907975460122s" repeatCount="indefinite"></animate>
  </rect>
</g><g transform="rotate(252 50 50)">
  <rect x="48" y="21.5" rx="2" ry="3.15" width="4" height="21" fill="#1c4595">
    <animate attributeName="opacity" values="1;0" keyTimes="0;1" dur="0.6134969325153374s" begin="-0.12269938650306748s" repeatCount="indefinite"></animate>
  </rect>
</g><g transform="rotate(288 50 50)">
  <rect x="48" y="21.5" rx="2" ry="3.15" width="4" height="21" fill="#1c4595">
    <animate attributeName="opacity" values="1;0" keyTimes="0;1" dur="0.6134969325153374s" begin="-0.06134969325153374s" repeatCount="indefinite"></animate>
  </rect>
</g><g transform="rotate(324 50 50)">
  <rect x="48" y="21.5" rx="2" ry="3.15" width="4" height="21" fill="#1c4595">
    <animate attributeName="opacity" values="1;0" keyTimes="0;1" dur="0.6134969325153374s" begin="0s" repeatCount="indefinite"></animate>
  </rect>
</g>
<!-- [ldio] generated by https://loading.io/ --></svg>